<svg width="40" height="40" viewBox="0 0 40 40" fill="none" xmlns="http://www.w3.org/2000/svg">
<path d="M14.113 13.991L14.1093 13.994L14.1057 13.9975L14.113 13.991ZM30.7032 13.6801C30.5872 13.5684 30.4586 13.4706 30.3199 13.3888C30.1235 13.2732 29.9055 13.1991 29.6794 13.1712C29.4533 13.1432 29.2238 13.1619 29.0052 13.2261C28.7866 13.2903 28.5835 13.3987 28.4085 13.5446C28.2334 13.6904 28.0901 13.8706 27.9875 14.074C27.4134 15.2051 26.6216 16.2118 25.6575 17.0362C25.8049 16.2056 25.8793 15.3636 25.8797 14.5199C25.8828 11.9535 25.2057 9.43196 23.9174 7.21222C22.6292 4.99248 20.7757 3.15376 18.5457 1.88328C18.3 1.74403 18.023 1.66946 17.7407 1.66659C17.4583 1.66372 17.1798 1.73263 16.9314 1.86685C16.683 2.00108 16.4727 2.19622 16.3203 2.43397C16.168 2.67171 16.0785 2.94427 16.0603 3.22606C15.9671 4.80635 15.5539 6.35126 14.846 7.76718C14.138 9.18309 13.15 10.4405 11.9417 11.4633L11.5576 11.7758C10.2941 12.626 9.17576 13.674 8.24544 14.8797C6.79929 16.7015 5.79751 18.8352 5.31953 21.1116C4.84155 23.388 4.90052 25.7445 5.49176 27.9941C6.083 30.2438 7.19026 32.3247 8.72571 34.0719C10.2612 35.8192 12.1826 37.1846 14.3376 38.06C14.5906 38.1634 14.8652 38.2029 15.1372 38.1751C15.4091 38.1473 15.67 38.053 15.8968 37.9006C16.1237 37.7481 16.3096 37.5421 16.438 37.3008C16.5665 37.0596 16.6336 36.7904 16.6334 36.517C16.6322 36.3402 16.6042 36.1646 16.5504 35.9962C16.1775 34.5946 16.0701 33.1356 16.2338 31.6944C17.8109 34.669 20.3424 37.0268 23.4213 38.3888C23.7971 38.5569 24.222 38.5795 24.6135 38.4523C27.0461 37.6671 29.2376 36.273 30.9796 34.4023C32.7217 32.5317 33.9565 30.2467 34.5667 27.7644C35.1769 25.2822 35.1422 22.6851 34.466 20.22C33.7898 17.7549 32.4945 15.5036 30.7032 13.6801ZM24.1952 35.0652C22.7424 34.3289 21.4608 33.2951 20.4338 32.031C19.4068 30.7669 18.6573 29.3008 18.2341 27.728C18.1049 27.1984 18.0049 26.6621 17.9346 26.1215C17.887 25.7773 17.733 25.4565 17.4942 25.2041C17.2553 24.9517 16.9435 24.7802 16.6024 24.7136C16.4974 24.6929 16.3905 24.6826 16.2834 24.6827C15.9905 24.6826 15.7027 24.7598 15.4491 24.9064C15.1955 25.053 14.985 25.2638 14.8389 25.5177C13.456 27.9029 12.7605 30.6245 12.8296 33.3807C11.6133 32.435 10.5969 31.2574 9.83906 29.916C9.08127 28.5746 8.59725 27.0962 8.41505 25.5663C8.23285 24.0365 8.35609 22.4857 8.77764 21.0039C9.19918 19.5221 9.91064 18.1386 10.8708 16.9337C11.5998 15.9868 12.4793 15.1659 13.4741 14.5037C13.5172 14.4759 13.5585 14.4455 13.5978 14.4126C13.5978 14.4126 14.0923 14.0035 14.1092 13.9941C16.4837 11.9857 18.1725 9.28662 18.9404 6.27295C20.7564 7.95167 21.9673 10.183 22.385 12.6205C22.8028 15.0579 22.4041 17.5651 21.2508 19.7528C21.0984 20.0447 21.0359 20.3752 21.0712 20.7026C21.1064 21.03 21.2379 21.3396 21.4489 21.5924C21.6599 21.8452 21.941 22.0299 22.2568 22.1231C22.5727 22.2163 22.909 22.2138 23.2235 22.1161C25.7764 21.3158 28.023 19.7526 29.6607 17.6369C30.6449 19.0908 31.2884 20.7479 31.5432 22.485C31.7979 24.2221 31.6574 25.9943 31.132 27.6695C30.6067 29.3447 29.7101 30.8798 28.509 32.1603C27.3079 33.4409 25.8333 34.4338 24.1952 35.0653L24.1952 35.0652Z" fill="white"/>
</svg>
