<svg width="40" height="40" viewBox="0 0 40 40" fill="none" xmlns="http://www.w3.org/2000/svg">
<path d="M6.03339 28.8002C6.19694 29.2112 6.51709 29.5405 6.92342 29.7156C7.32975 29.8906 7.78897 29.897 8.20005 29.7335C8.61114 29.5699 8.94042 29.2498 9.11545 28.8435C9.29048 28.4371 9.29694 27.9779 9.13339 27.5668L7.26672 22.8668L18.3334 20.4168V28.3335C18.3334 28.7755 18.509 29.1994 18.8215 29.512C19.1341 29.8246 19.558 30.0002 20.0001 30.0002C20.4421 30.0002 20.866 29.8246 21.1786 29.512C21.4911 29.1994 21.6667 28.7755 21.6667 28.3335V20.4168L32.7334 22.8668L30.8667 27.5668C30.7855 27.7704 30.7453 27.9879 30.7483 28.207C30.7512 28.4261 30.7974 28.6425 30.8841 28.8437C30.9708 29.045 31.0963 29.2271 31.2535 29.3798C31.4106 29.5325 31.5964 29.6527 31.8001 29.7335C31.9964 29.8111 32.2056 29.8507 32.4167 29.8502C32.7505 29.8505 33.0767 29.7506 33.3531 29.5634C33.6294 29.3762 33.8432 29.1103 33.9667 28.8002L36.5501 22.2835C36.6387 22.0581 36.6772 21.8161 36.6628 21.5743C36.6484 21.3325 36.5815 21.0968 36.4667 20.8835C36.3554 20.671 36.1994 20.485 36.0096 20.3383C35.8197 20.1916 35.6004 20.0877 35.3667 20.0335L30.0001 18.8502V11.6668C30.0001 11.2248 29.8245 10.8009 29.5119 10.4883C29.1993 10.1758 28.7754 10.0002 28.3334 10.0002H25.0001V5.00016C25.0001 4.55814 24.8245 4.13421 24.5119 3.82165C24.1993 3.50909 23.7754 3.3335 23.3334 3.3335H16.6667C16.2247 3.3335 15.8008 3.50909 15.4882 3.82165C15.1756 4.13421 15.0001 4.55814 15.0001 5.00016V10.0002H11.6667C11.2247 10.0002 10.8008 10.1758 10.4882 10.4883C10.1756 10.8009 10.0001 11.2248 10.0001 11.6668V18.8502L4.63339 20.0002C4.39966 20.0543 4.18038 20.1583 3.99053 20.305C3.80069 20.4517 3.64475 20.6377 3.53338 20.8502C3.4186 21.0634 3.35168 21.2992 3.33729 21.541C3.3229 21.7828 3.36138 22.0248 3.45005 22.2502L6.03339 28.8002ZM18.3334 6.66683H21.6667V10.0002H18.3334V6.66683ZM13.3334 13.3335H26.6667V18.1002L20.3667 16.6668H20.2001H20.0001H19.8001H19.6334L13.3334 18.1002V13.3335ZM34.5167 32.1335C33.9319 32.3127 33.372 32.5647 32.85 32.8835C32.3191 33.194 31.7151 33.3576 31.1001 33.3576C30.485 33.3576 29.881 33.194 29.3501 32.8835C28.1955 32.2322 26.8923 31.8899 25.5667 31.8899C24.2411 31.8899 22.9379 32.2322 21.7834 32.8835C21.2452 33.1904 20.6363 33.3518 20.0167 33.3518C19.3972 33.3518 18.7883 33.1904 18.2501 32.8835C17.0945 32.2353 15.7917 31.8949 14.4667 31.8949C13.1417 31.8949 11.839 32.2353 10.6834 32.8835C10.1524 33.194 9.54845 33.3576 8.93339 33.3576C8.31832 33.3576 7.71433 33.194 7.18339 32.8835C6.66144 32.5647 6.1015 32.3127 5.51672 32.1335C5.29496 32.0546 5.05901 32.0237 4.82441 32.0426C4.58981 32.0615 4.36187 32.1299 4.15561 32.2433C3.94935 32.3566 3.76944 32.5124 3.62772 32.7003C3.486 32.8882 3.38569 33.104 3.33339 33.3335C3.20896 33.7556 3.25654 34.2098 3.46574 34.597C3.67494 34.9842 4.02878 35.2729 4.45005 35.4002C4.78566 35.4911 5.10584 35.6315 5.40005 35.8168C6.41123 36.4102 7.561 36.7264 8.73339 36.7335C9.95105 36.7337 11.1471 36.4117 12.2001 35.8002C12.8533 35.4398 13.5873 35.2508 14.3334 35.2508C15.0795 35.2508 15.8134 35.4398 16.4667 35.8002C17.5122 36.398 18.6957 36.7125 19.9001 36.7125C21.1044 36.7125 22.2879 36.398 23.3334 35.8002C23.9867 35.4398 24.7206 35.2508 25.4667 35.2508C26.2128 35.2508 26.9468 35.4398 27.6001 35.8002C28.6331 36.4167 29.8137 36.7422 31.0167 36.7422C32.2197 36.7422 33.4004 36.4167 34.4334 35.8002C34.7276 35.6149 35.0478 35.4744 35.3834 35.3835C35.6052 35.3386 35.8155 35.2491 36.0016 35.1202C36.1876 34.9914 36.3455 34.8261 36.4656 34.6343C36.5857 34.4425 36.6654 34.2282 36.7 34.0046C36.7346 33.7809 36.7233 33.5526 36.6667 33.3335C36.6138 33.1079 36.5143 32.8959 36.3748 32.7109C36.2353 32.5259 36.0588 32.3721 35.8565 32.2592C35.6541 32.1462 35.4305 32.0767 35.1998 32.0551C34.9692 32.0335 34.7365 32.0602 34.5167 32.1335Z" fill="white"/>
</svg>
