<svg width="40" height="40" viewBox="0 0 40 40" fill="none" xmlns="http://www.w3.org/2000/svg">
<path d="M28.3333 15.4665C28.9925 15.4665 29.637 15.271 30.1852 14.9047C30.7333 14.5384 31.1606 14.0178 31.4129 13.4088C31.6652 12.7997 31.7312 12.1294 31.6026 11.4828C31.4739 10.8362 31.1565 10.2423 30.6903 9.77612C30.2241 9.30994 29.6302 8.99247 28.9836 8.86386C28.337 8.73524 27.6667 8.80125 27.0577 9.05354C26.4486 9.30583 25.928 9.73307 25.5617 10.2812C25.1954 10.8294 24.9999 11.4739 24.9999 12.1331C24.9999 13.0172 25.3511 13.865 25.9763 14.4902C26.6014 15.1153 27.4492 15.4665 28.3333 15.4665ZM4.51661 23.1998C4.84686 23.3054 5.16524 23.445 5.46661 23.6165C6.50316 24.2228 7.6824 24.5424 8.88327 24.5424C10.0841 24.5424 11.2634 24.2228 12.2999 23.6165C12.9517 23.2515 13.6863 23.0599 14.4333 23.0599C15.1803 23.0599 15.9148 23.2515 16.5666 23.6165L16.9166 23.7831C17.9279 24.2755 19.0443 24.5131 20.1685 24.4754C21.2927 24.4376 22.3906 24.1256 23.3666 23.5665C24.0184 23.2015 24.7529 23.0099 25.4999 23.0099C26.247 23.0099 26.9815 23.2015 27.6333 23.5665C28.6895 24.1701 29.8834 24.4916 31.0999 24.4998C32.2738 24.4876 33.4237 24.1657 34.4333 23.5665C34.7346 23.395 35.053 23.2554 35.3833 23.1498C35.6296 23.1328 35.8691 23.0614 36.0844 22.9405C36.2998 22.8197 36.4856 22.6525 36.6284 22.4511C36.7712 22.2497 36.8675 22.019 36.9103 21.7759C36.9531 21.5327 36.9413 21.283 36.8758 21.0449C36.8103 20.8069 36.6927 20.5863 36.5315 20.3993C36.3704 20.2122 36.1697 20.0633 35.9439 19.9632C35.7181 19.8632 35.473 19.8146 35.2261 19.821C34.9793 19.8273 34.7369 19.8884 34.5166 19.9998C33.9351 20.1803 33.3759 20.4263 32.8499 20.7331C32.3179 21.0403 31.7143 21.2021 31.0999 21.2021C30.4856 21.2021 29.882 21.0403 29.3499 20.7331C28.1954 20.0818 26.8922 19.7396 25.5666 19.7396C24.241 19.7396 22.9378 20.0818 21.7833 20.7331C21.6265 20.8098 21.4651 20.8766 21.2999 20.9331L23.8999 18.3331C23.9595 18.2559 24.0099 18.172 24.0499 18.0831C24.1254 18.0012 24.1924 17.9118 24.2499 17.8165C24.2577 17.7111 24.2577 17.6052 24.2499 17.4998C24.2594 17.3945 24.2594 17.2885 24.2499 17.1831C24.2579 17.0833 24.2579 16.983 24.2499 16.8831C24.2594 16.7778 24.2594 16.6718 24.2499 16.5665C24.2006 16.4685 24.1449 16.3739 24.0833 16.2831C24.04 16.1871 23.9839 16.0974 23.9166 16.0165L18.7999 10.4665C18.6653 10.3197 18.5077 10.1959 18.3333 10.0998C18.2171 10.0844 18.0994 10.0844 17.9833 10.0998C17.8894 10.0846 17.7938 10.0846 17.6999 10.0998C17.4781 10.0105 17.2379 9.97622 16.9999 9.99981L11.0999 12.1998C10.6845 12.3502 10.3459 12.6595 10.1584 13.0595C9.97085 13.4595 9.94984 13.9176 10.0999 14.3331C10.2504 14.7485 10.5596 15.0872 10.9596 15.2747C11.3596 15.4622 11.8178 15.4832 12.2333 15.3331L17.1166 13.5498L20.4499 17.0831L17.2833 20.2498C16.2223 19.8374 15.083 19.6653 13.9476 19.746C12.8121 19.8267 11.7086 20.1581 10.7166 20.7165C10.1845 21.0237 9.58099 21.1854 8.96661 21.1854C8.35223 21.1854 7.74867 21.0237 7.21661 20.7165C6.69064 20.4097 6.13149 20.1636 5.54994 19.9831C5.33669 19.9036 5.10941 19.8685 4.88209 19.8802C4.65478 19.8918 4.43227 19.9499 4.22826 20.0508C4.02425 20.1518 3.84308 20.2934 3.69592 20.467C3.54875 20.6407 3.43871 20.8426 3.37257 21.0604C3.30644 21.2782 3.28561 21.5072 3.31138 21.7333C3.33715 21.9595 3.40897 22.178 3.5224 22.3753C3.63584 22.5726 3.78849 22.7446 3.97094 22.8807C4.1534 23.0168 4.36179 23.114 4.58327 23.1665L4.51661 23.1998ZM34.5166 28.3498C33.9351 28.5303 33.3759 28.7763 32.8499 29.0831C32.3179 29.3903 31.7143 29.552 31.0999 29.552C30.4856 29.552 29.882 29.3903 29.3499 29.0831C28.1954 28.4318 26.8922 28.0896 25.5666 28.0896C24.241 28.0896 22.9378 28.4318 21.7833 29.0831C21.2467 29.3949 20.6372 29.5591 20.0166 29.5591C19.396 29.5591 18.7865 29.3949 18.2499 29.0831C17.0954 28.4318 15.7922 28.0896 14.4666 28.0896C13.141 28.0896 11.8378 28.4318 10.6833 29.0831C10.1512 29.3903 9.54765 29.552 8.93327 29.552C8.3189 29.552 7.71534 29.3903 7.18327 29.0831C6.65731 28.7763 6.09816 28.5303 5.51661 28.3498C5.30336 28.2702 5.07607 28.2352 4.84876 28.2468C4.62145 28.2585 4.39893 28.3166 4.19493 28.4175C3.99092 28.5184 3.80975 28.6601 3.66258 28.8337C3.51542 29.0073 3.40538 29.2093 3.33924 29.4271C3.27311 29.6448 3.25228 29.8739 3.27805 30.1C3.30382 30.3262 3.37563 30.5446 3.48907 30.742C3.6025 30.9393 3.75515 31.1113 3.93761 31.2474C4.12006 31.3834 4.32846 31.4807 4.54994 31.5331C4.8802 31.6387 5.19858 31.7784 5.49994 31.9498C6.53649 32.5562 7.71573 32.8757 8.91661 32.8757C10.1175 32.8757 11.2967 32.5562 12.3333 31.9498C12.9851 31.5849 13.7196 31.3932 14.4666 31.3932C15.2136 31.3932 15.9481 31.5849 16.5999 31.9498C17.6454 32.5476 18.8289 32.8621 20.0333 32.8621C21.2376 32.8621 22.4211 32.5476 23.4666 31.9498C24.1184 31.5849 24.8529 31.3932 25.5999 31.3932C26.347 31.3932 27.0815 31.5849 27.7333 31.9498C28.7895 32.5535 29.9834 32.8749 31.1999 32.8831C32.3738 32.8709 33.5237 32.549 34.5333 31.9498C34.8346 31.7784 35.153 31.6387 35.4833 31.5331C35.6934 31.4697 35.8889 31.3654 36.0588 31.2264C36.2286 31.0873 36.3694 30.9162 36.4731 30.7227C36.5768 30.5293 36.6413 30.3173 36.6631 30.0989C36.6849 29.8805 36.6634 29.6599 36.5999 29.4498C36.5365 29.2397 36.4322 29.0441 36.2932 28.8743C36.1541 28.7045 35.983 28.5637 35.7895 28.46C35.5961 28.3563 35.3841 28.2917 35.1657 28.27C34.9473 28.2482 34.7267 28.2697 34.5166 28.3331V28.3498Z" fill="white"/>
</svg>
