<svg width="28" height="28" viewBox="0 0 28 28" fill="none" xmlns="http://www.w3.org/2000/svg">
<path d="M16.5539 19.4837C17.8425 19.1894 19.0723 18.6813 20.1921 17.9805C20.5868 17.7148 20.8624 17.3064 20.9606 16.8417C21.0588 16.3769 20.9718 15.8923 20.7181 15.4904C20.4644 15.0884 20.0639 14.8007 19.6012 14.688C19.1386 14.5753 18.6502 14.6465 18.2392 14.8866C16.9749 15.6737 15.5144 16.091 14.024 16.091C12.5336 16.091 11.0731 15.6737 9.80879 14.8866C9.39835 14.6285 8.90208 14.5432 8.42868 14.6493C7.95528 14.7554 7.54334 15.0442 7.28307 15.4526V15.4564C7.15448 15.6592 7.06729 15.8853 7.02649 16.1218C6.98568 16.3582 6.99208 16.6004 7.0453 16.8344C7.09852 17.0684 7.19752 17.2896 7.33663 17.4854C7.47574 17.6811 7.65222 17.8476 7.85596 17.9752L7.85899 17.979C8.97583 18.6799 10.2036 19.1871 11.4903 19.4791L7.98933 22.9698C7.64653 23.3054 7.45116 23.7628 7.44604 24.2418C7.44093 24.7208 7.6265 25.1822 7.96205 25.525L7.99312 25.5559C8.34095 25.9134 8.81078 26.091 9.28061 26.091C9.75044 26.091 10.2195 25.9134 10.5666 25.5559L14.0244 22.1272L17.4617 25.5605C18.1922 26.2565 19.3524 26.2406 20.0557 25.5129C20.3857 25.1722 20.5701 24.717 20.5701 24.2432C20.5701 23.7695 20.3857 23.3143 20.0557 22.9736L16.5539 19.4837ZM14.0236 14.3908C15.6829 14.3898 17.2739 13.7322 18.4475 12.5624C19.621 11.3926 20.2812 9.80624 20.283 8.1515C20.283 4.71142 17.4731 1.90918 14.0236 1.90918C10.5742 1.90918 7.76427 4.71142 7.76427 8.1515C7.76607 9.80659 8.42609 11.3934 9.59954 12.5638C10.773 13.7342 12.364 14.3926 14.0236 14.3946V14.3908ZM14.0236 5.56993C14.71 5.57033 15.3682 5.84245 15.8536 6.3265C16.339 6.81055 16.6118 7.46695 16.6122 8.1515C16.612 8.8366 16.3394 9.49367 15.8542 9.9786C15.3689 10.4635 14.7106 10.7368 14.0236 10.7384C13.3364 10.7366 12.6778 10.4634 12.192 9.97861C11.7062 9.49383 11.4326 8.83689 11.4312 8.1515C11.4336 7.46656 11.7075 6.81035 12.1932 6.32602C12.6788 5.84169 13.3368 5.56854 14.0236 5.56615V5.56993Z" fill="white"/>
</svg>
