<svg width="28" height="28" viewBox="0 0 28 28" fill="none" xmlns="http://www.w3.org/2000/svg">
<path fill-rule="evenodd" clip-rule="evenodd" d="M21.5637 23.0882L21.5645 23.0863L21.5848 23.0355L25.0833 5.39659V5.33929C25.0833 4.89981 24.921 4.51614 24.5676 4.286C24.2583 4.08456 23.9027 4.07022 23.6534 4.08914C23.3897 4.10916 23.1411 4.17497 22.969 4.22976C22.8804 4.25795 22.8063 4.28511 22.7533 4.30565C22.7267 4.31596 22.7051 4.3247 22.6895 4.33122L22.6741 4.33771L3.1676 11.9898L3.16223 11.9917C3.1517 11.9956 3.13777 12.0008 3.12094 12.0073C3.08739 12.0204 3.04173 12.039 2.98809 12.0634C2.88276 12.1111 2.73723 12.1848 2.58965 12.2858C2.33898 12.4575 1.86168 12.8639 1.94228 13.5081C2.00904 14.0418 2.37689 14.3807 2.62489 14.5562C2.75783 14.6502 2.88501 14.718 2.97814 14.7624C3.02533 14.7848 3.06542 14.8021 3.09527 14.8142C3.11024 14.8203 3.12275 14.8252 3.13243 14.8289L3.14483 14.8335L3.15275 14.8364L6.56553 15.9854C6.55401 16.1995 6.57525 16.4178 6.63204 16.6332L8.34153 23.118C8.54423 23.8869 9.23982 24.4225 10.035 24.4219C10.7477 24.4214 11.3799 23.9902 11.6484 23.3469L14.3174 20.4932L18.9012 24.0074L18.9664 24.0359C19.3828 24.2176 19.7719 24.2752 20.1277 24.2266C20.4829 24.1781 20.7652 24.0291 20.9773 23.8594C21.1859 23.6925 21.329 23.5041 21.4189 23.3622C21.4646 23.2901 21.4986 23.2268 21.5223 23.1791C21.5341 23.1552 21.5435 23.1349 21.5505 23.1191L21.5593 23.0988L21.5624 23.0913L21.5637 23.0882ZM8.32417 16.1871C8.28532 16.0397 8.34631 15.8841 8.47498 15.8024L20.0507 8.45138C20.0507 8.45138 20.7315 8.03803 20.7072 8.45138C20.7072 8.45138 20.8287 8.52437 20.4639 8.86472C20.1178 9.18798 12.2136 16.8192 11.4138 17.5914C11.3676 17.636 11.34 17.6871 11.3238 17.7492L10.0337 22.6719L8.32417 16.1871Z" fill="white"/>
</svg>
