<svg width="28" height="28" viewBox="0 0 28 28" fill="none" xmlns="http://www.w3.org/2000/svg">
<path d="M11.498 8.67714L11.4983 8.67781C11.6509 9.01788 11.9043 9.63486 12.107 10.1285L12.1104 10.1367C12.1902 10.3313 12.2624 10.507 12.3187 10.6422C12.3468 10.7099 12.3705 10.7661 12.3888 10.8088C12.398 10.8302 12.4053 10.8471 12.411 10.8597C12.4162 10.8714 12.4185 10.8761 12.4184 10.8761C12.4184 10.8761 12.4183 10.8759 12.4181 10.8755L11.9713 11.0998M11.498 8.67714L12.4438 11.8417C12.6379 11.4439 12.529 11.0961 12.4181 10.8754L11.9713 11.0998M11.498 8.67714C11.3612 8.37338 11.188 8.14358 10.9509 8.00614C10.7235 7.87434 10.5003 7.8687 10.3913 7.86594C10.388 7.86586 10.3848 7.86578 10.3817 7.86569C10.2007 7.85976 9.99265 7.85976 9.79509 7.85976H9.78975C9.47332 7.85976 9.0081 7.97562 8.62095 8.39309C8.60647 8.4087 8.59002 8.42609 8.56981 8.44745L8.56981 8.44745C8.23115 8.80537 7.43712 9.6483 7.43712 11.232C7.43712 12.0696 7.73753 12.8656 8.03802 13.4594C8.34189 14.0599 8.66803 14.4963 8.75944 14.6186L8.7595 14.6187L8.75953 14.6188L8.76545 14.6267C8.7653 14.6265 8.76541 14.6266 8.76582 14.6272C8.76697 14.6289 8.77049 14.6339 8.77754 14.6441L8.81362 14.6973L9.22774 14.4171L8.81362 14.6973L8.81934 14.7057C9.20716 15.279 11.1455 18.1445 14.1199 19.3141C15.2835 19.7721 16.0551 19.9922 16.6152 20.0862C17.1939 20.1832 17.5354 20.1431 17.8116 20.1097C17.8664 20.103 17.9121 20.0976 17.9568 20.0933C18.3492 20.0566 18.8731 19.8278 19.309 19.547C19.7385 19.2704 20.2266 18.8518 20.4115 18.3413L20.4127 18.3379M11.498 8.67714L20.4127 18.3379M11.9713 11.0998C12.0463 11.2491 12.0925 11.4215 11.9944 11.6225L11.6478 10.3267L11.6479 10.3269C11.8073 10.715 11.9385 11.0344 11.9713 11.0998ZM20.5446 16.4913C20.4528 16.3366 20.3203 16.2423 20.2255 16.1844C20.1343 16.1287 20.0265 16.077 19.9329 16.0322L19.9198 16.0259C19.8681 16.0011 19.8158 15.976 19.7602 15.9484L19.7602 15.9483C19.6079 15.8726 19.1615 15.6533 18.7184 15.44C18.2896 15.2335 17.8236 15.0129 17.6577 14.951L17.6577 14.951L17.6559 14.9504C17.528 14.9026 17.3011 14.818 17.0564 14.8468C16.7583 14.882 16.5436 15.0615 16.392 15.291C16.2136 15.5536 15.6875 16.1691 15.4913 16.3972C15.4742 16.3904 15.4526 16.381 15.4259 16.3677C15.3646 16.3372 15.2874 16.3039 15.2135 16.272L15.2039 16.2679L15.2027 16.2674C14.797 16.0923 14.019 15.7566 13.1176 14.9541L13.1167 14.9533C12.3103 14.2387 11.7472 13.3486 11.5621 13.0343C11.5721 13.0241 11.5832 13.0129 11.5967 12.9995L11.597 12.9993C11.6989 12.8978 11.8104 12.763 11.9025 12.6517L11.9119 12.6402L11.5267 12.3215L11.9119 12.6402C11.9693 12.5709 12.0218 12.5075 12.0713 12.4507L12.0714 12.4506C12.248 12.2477 12.3283 12.0811 12.4078 11.9161L12.4118 11.9077L11.9614 11.6907L12.4118 11.9077L12.4437 11.8418L20.5446 16.4913ZM20.5446 16.4913C20.6268 16.6299 20.6453 16.7931 20.6525 16.8845M20.5446 16.4913L20.6525 16.8845M15.8553 16.7407C15.6822 16.9417 15.5033 16.9647 15.2032 16.8153C15.1544 16.7911 15.0879 16.7624 15.0058 16.727L15.8553 16.7407ZM15.8553 16.7407C16.0285 16.5396 16.6056 15.8675 16.8077 15.5688L15.8553 16.7407ZM20.4127 18.3379C20.5512 17.9469 20.6221 17.5806 20.6473 17.2859M20.4127 18.3379L20.6473 17.2859M20.6473 17.2859C20.6599 17.1391 20.6618 17.0025 20.6525 16.8845M20.6473 17.2859L20.6525 16.8845M8.72936 23.6191C8.61785 23.5587 8.48756 23.543 8.36486 23.575L3.04554 24.9644L4.4659 19.8087C4.50151 19.6794 4.48372 19.5413 4.41653 19.4253C3.44283 17.7441 2.9307 15.8377 2.9314 13.8974V13.8972C2.9314 7.79955 7.92246 2.83398 14.0489 2.83398C17.0275 2.83398 19.8153 3.98795 21.9145 6.07742C24.0132 8.16639 25.1666 10.9455 25.1666 13.903C25.1666 20.0005 20.1756 24.9661 14.049 24.9661H14.0433C12.1818 24.9661 10.3533 24.4988 8.72936 23.6191Z" fill="white" stroke="white" stroke-linejoin="round"/>
</svg>
