<svg width="52" height="52" viewBox="0 0 52 52" fill="none" xmlns="http://www.w3.org/2000/svg">
<path d="M43.3333 22.7498C42.7587 22.7498 42.2076 22.9781 41.8012 23.3844C41.3949 23.7908 41.1666 24.3419 41.1666 24.9165V40.0832C41.1666 40.6578 40.9384 41.2089 40.532 41.6152C40.1257 42.0216 39.5746 42.2498 39 42.2498H8.66663C8.09199 42.2498 7.54089 42.0216 7.13456 41.6152C6.72823 41.2089 6.49996 40.6578 6.49996 40.0832V22.7498C6.49996 22.1752 6.72823 21.6241 7.13456 21.2178C7.54089 20.8114 8.09199 20.5832 8.66663 20.5832H13C13.4724 20.6078 13.94 20.4772 14.3312 20.2111C14.7225 19.9451 15.0159 19.5583 15.1666 19.1098L16.3366 15.5565C16.482 15.1262 16.7589 14.7524 17.1283 14.488C17.4976 14.2236 17.9407 14.082 18.395 14.0832H30.3333C30.9079 14.0832 31.459 13.8549 31.8654 13.4486C32.2717 13.0422 32.5 12.4911 32.5 11.9165C32.5 11.3419 32.2717 10.7908 31.8654 10.3844C31.459 9.97811 30.9079 9.74984 30.3333 9.74984H18.2866C16.925 9.75238 15.5985 10.1825 14.4945 10.9794C13.3904 11.7764 12.5645 12.8999 12.1333 14.1915L11.44 16.3582H8.66663C6.94272 16.3582 5.28942 17.043 4.07043 18.262C2.85145 19.481 2.16663 21.1343 2.16663 22.8582V40.1915C2.16663 41.9154 2.85145 43.5687 4.07043 44.7877C5.28942 46.0067 6.94272 46.6915 8.66663 46.6915H39C40.7239 46.6915 42.3772 46.0067 43.5961 44.7877C44.8151 43.5687 45.5 41.9154 45.5 40.1915V25.0248C45.5147 24.7313 45.4695 24.4379 45.3672 24.1624C45.2649 23.8869 45.1076 23.6351 44.905 23.4222C44.7023 23.2094 44.4584 23.0401 44.1882 22.9245C43.9181 22.8089 43.6272 22.7495 43.3333 22.7498ZM23.8333 20.5832C22.1192 20.5832 20.4436 21.0915 19.0184 22.0438C17.5931 22.9961 16.4823 24.3496 15.8263 25.9332C15.1704 27.5169 14.9987 29.2595 15.3332 30.9406C15.6676 32.6218 16.493 34.166 17.705 35.3781C18.9171 36.5902 20.4613 37.4156 22.1425 37.75C23.8237 38.0844 25.5663 37.9128 27.1499 37.2568C28.7335 36.6008 30.0871 35.49 31.0394 34.0648C31.9917 32.6396 32.5 30.9639 32.5 29.2498C32.5 26.9513 31.5869 24.7469 29.9615 23.1216C28.3362 21.4963 26.1318 20.5832 23.8333 20.5832ZM23.8333 33.5832C22.9762 33.5832 22.1384 33.329 21.4258 32.8529C20.7132 32.3767 20.1578 31.6999 19.8298 30.9081C19.5018 30.1163 19.416 29.245 19.5832 28.4044C19.7504 27.5639 20.1631 26.7917 20.7692 26.1857C21.3752 25.5797 22.1473 25.167 22.9879 24.9998C23.8285 24.8326 24.6998 24.9184 25.4916 25.2464C26.2834 25.5743 26.9602 26.1298 27.4363 26.8424C27.9125 27.555 28.1666 28.3928 28.1666 29.2498C28.1666 30.3991 27.7101 31.5013 26.8974 32.314C26.0848 33.1266 24.9826 33.5832 23.8333 33.5832ZM47.6666 9.74984H45.5V7.58317C45.5 7.00853 45.2717 6.45743 44.8654 6.05111C44.459 5.64478 43.9079 5.4165 43.3333 5.4165C42.7587 5.4165 42.2076 5.64478 41.8012 6.05111C41.3949 6.45743 41.1666 7.00853 41.1666 7.58317V9.74984H39C38.4253 9.74984 37.8742 9.97811 37.4679 10.3844C37.0616 10.7908 36.8333 11.3419 36.8333 11.9165C36.8333 12.4911 37.0616 13.0422 37.4679 13.4486C37.8742 13.8549 38.4253 14.0832 39 14.0832H41.1666V16.2498C41.1666 16.8245 41.3949 17.3756 41.8012 17.7819C42.2076 18.1882 42.7587 18.4165 43.3333 18.4165C43.9079 18.4165 44.459 18.1882 44.8654 17.7819C45.2717 17.3756 45.5 16.8245 45.5 16.2498V14.0832H47.6666C48.2413 14.0832 48.7924 13.8549 49.1987 13.4486C49.605 13.0422 49.8333 12.4911 49.8333 11.9165C49.8333 11.3419 49.605 10.7908 49.1987 10.3844C48.7924 9.97811 48.2413 9.74984 47.6666 9.74984Z" fill="white"/>
</svg>
