<svg width="105" height="61" viewBox="0 0 105 61" fill="none" xmlns="http://www.w3.org/2000/svg">
<path d="M6.77091 53.0417C5.02689 53.7092 4.15489 54.0686 2.41087 54.9415C2.41087 55.5063 2.41087 55.763 2.41087 56.2252C4.001 55.5577 4.82172 55.2496 6.46314 54.7361C6.46314 55.3523 6.46314 55.609 6.46314 56.2252C4.82172 56.6359 4.0523 56.8413 2.41087 57.4061C2.41087 58.4331 2.41087 58.8952 2.41087 60.6923C1.43627 60.795 0.923327 60.8977 -0.0512695 61.0004C-0.0512695 57.2521 -0.0512695 58.4844 -0.0512695 54.7361C2.66734 52.939 4.001 52.1688 6.66832 50.9878C6.77091 51.912 6.77091 52.3228 6.77091 53.0417Z" fill="#F15A29"/>
<path d="M13.6957 59.5624C11.49 59.7164 10.3616 59.8191 8.10459 60.0245C8.10459 59.1516 8.10459 58.7408 8.0533 58.0733C8.66883 57.9706 8.9766 57.9193 9.59214 57.8679C9.54084 55.1979 9.54084 54.6331 9.48955 51.963C8.87401 52.1684 8.56624 52.2711 7.95071 52.4765C7.95071 51.7576 7.95071 51.3982 7.89941 50.474C10.1051 49.5497 11.1823 49.1903 13.3879 48.6255C13.3879 49.6011 13.3879 50.0632 13.4392 50.8334C12.8237 50.9874 12.5159 51.0388 11.9004 51.1928C11.9517 54.0682 12.003 54.6844 12.0543 57.5085C12.6698 57.4571 12.9776 57.4058 13.5931 57.3544C13.6957 58.176 13.6957 58.5868 13.6957 59.5624Z" fill="#F15A29"/>
<path d="M23.2364 55.198C23.2877 56.2763 22.8773 57.2519 22.1079 58.0735C21.3385 58.895 20.2613 59.4085 18.9276 59.5112C18.1582 59.5625 17.4401 59.4598 16.8759 59.3058C16.3116 59.1517 15.7474 58.9464 15.2344 58.6896C15.2344 57.4573 15.1831 56.9438 15.1831 55.9169C15.2857 55.9169 15.337 55.9169 15.4396 55.8655C15.9525 56.2763 16.5168 56.5844 17.1836 56.7898C17.7992 56.9952 18.4147 57.0979 18.9789 57.0465C19.1328 57.0465 19.338 56.9952 19.5432 56.9438C19.7996 56.8925 20.0048 56.8411 20.1074 56.7384C20.3126 56.6357 20.4665 56.4817 20.5691 56.379C20.6716 56.225 20.7229 56.0196 20.7229 55.7628C20.7229 55.5061 20.6204 55.3007 20.4665 55.1467C20.2613 54.9926 20.0048 54.89 19.6971 54.7873C19.338 54.7359 18.9789 54.6332 18.5686 54.5819C18.1582 54.5305 17.7992 54.4792 17.4401 54.3765C16.6194 54.1711 16.0551 53.863 15.6961 53.4522C15.337 53.0415 15.1318 52.4767 15.1318 51.7578C15.1318 50.7822 15.4909 49.8066 16.2603 48.8824C17.0297 47.9581 18.0043 47.342 19.2867 47.1879C19.9022 47.1366 20.5178 47.1366 21.1333 47.2906C21.7488 47.4447 22.2618 47.6501 22.7234 47.8554C22.7747 49.1391 22.7747 49.7039 22.826 50.7309C22.7234 50.7309 22.6721 50.7309 22.5695 50.7309C22.1592 50.3714 21.6975 50.1147 21.1333 49.858C20.5691 49.6526 20.0048 49.5499 19.4406 49.6012C19.2354 49.6012 19.0302 49.6526 18.825 49.7039C18.6199 49.7553 18.4147 49.858 18.2608 49.9607C18.1069 50.0634 17.953 50.2174 17.8504 50.3714C17.7479 50.5255 17.6966 50.7309 17.6966 50.9363C17.6966 51.2443 17.7992 51.4497 18.0043 51.5524C18.2095 51.7065 18.5686 51.7578 19.0815 51.8605C19.4406 51.9118 19.7483 51.9632 20.1074 52.0145C20.4152 52.0659 20.7742 52.1686 21.1333 52.2713C21.8514 52.4767 22.4157 52.8361 22.7747 53.2469C22.9799 53.863 23.1851 54.4278 23.2364 55.198Z" fill="#F15A29"/>
<path d="M33.4953 58.9463C32.5207 58.9463 32.059 58.9463 31.0844 58.9463C31.0331 56.533 30.9818 55.7114 30.9305 53.9143C29.4943 53.8629 28.7762 53.8116 27.3399 53.8116C27.3912 55.6601 27.4425 56.4816 27.4938 58.9976C26.5192 58.9976 26.0063 58.9976 25.0317 59.0489C24.9291 55.1466 24.7752 51.1929 24.6726 47.2905C25.6472 47.2905 26.1089 47.2905 27.0835 47.3419C27.1347 49.4471 27.186 50.2686 27.2373 51.8604C28.6736 51.9117 29.3917 51.9117 30.828 52.0144C30.7767 50.474 30.7254 49.7038 30.6741 47.5986C31.6487 47.7013 32.1103 47.7526 33.0849 47.8553C33.1875 51.501 33.3414 55.2493 33.4953 58.9463Z" fill="#F15A29"/>
<path d="M40.9843 59.2029C38.7787 59.1002 37.6502 59.0488 35.4445 58.9975C35.3932 58.0733 35.3932 57.6625 35.3932 56.8409C36.0088 56.8923 36.3165 56.8923 36.9321 56.9436C36.8295 54.1195 36.7782 53.3493 36.6756 50.4226C36.06 50.3199 35.7523 50.3199 35.1367 50.2172C35.0854 49.3956 35.0854 48.9849 35.0854 48.0093C37.2911 48.3174 38.3683 48.5227 40.574 48.9335C40.6253 49.8578 40.6253 50.2685 40.6766 51.0387C40.061 50.936 39.7533 50.8847 39.1377 50.782C39.2403 53.6061 39.2916 54.3763 39.3942 57.0977C40.0097 57.149 40.3175 57.149 40.933 57.2004C40.933 57.9192 40.933 58.33 40.9843 59.2029Z" fill="#F15A29"/>
<path d="M51.551 59.8707C50.6277 59.7681 50.1661 59.768 49.1915 59.6654C47.4987 56.5845 46.6267 55.8657 44.8827 53.093C44.9853 55.5576 45.0879 56.2765 45.1905 59.4086C44.3185 59.3573 43.8568 59.3059 42.9848 59.3059C42.8309 56.0197 42.6771 52.6822 42.5745 49.396C43.7542 49.6527 44.3185 49.7554 45.447 50.0122C46.9345 53.093 47.6526 53.9145 49.1402 55.917C49.0376 54.1199 48.9863 53.401 48.8837 50.7824C49.7557 50.9877 50.2174 51.0904 51.0894 51.2958C51.192 54.1199 51.3971 56.9953 51.551 59.8707Z" fill="#F15A29"/>
<path d="M62.2717 60.5383C61.8613 60.641 61.2971 60.6924 60.5789 60.7437C59.8608 60.795 59.194 60.795 58.4759 60.7437C56.8857 60.5897 55.6034 59.9735 54.6801 59.1006C53.7568 58.2277 53.1925 57.1494 53.1412 55.9684C53.0899 54.8388 53.5003 53.9146 54.4236 53.2471C55.3469 52.5796 56.6806 52.3742 58.4246 52.7336C59.0914 52.8876 59.7069 53.093 60.3225 53.2984C60.938 53.5552 61.6048 53.9146 62.323 54.3767C62.323 55.1982 62.323 55.5577 62.323 56.2252C62.2204 56.2252 62.1691 56.1738 62.0152 56.1738C61.9126 56.0711 61.7074 55.9684 61.451 55.8144C61.1945 55.6604 60.9893 55.5063 60.7841 55.3523C60.5276 55.1982 60.2199 55.0442 59.8608 54.8902C59.5018 54.7361 59.1427 54.6334 58.7836 54.5307C58.322 54.428 57.9116 54.428 57.5526 54.428C57.1935 54.4794 56.8857 54.5821 56.578 54.7361C56.3215 54.8902 56.1163 55.0956 55.9624 55.4036C55.8085 55.6604 55.7573 56.0198 55.7573 56.3792C55.8085 57.1494 56.1163 57.7656 56.6806 58.2791C57.2448 58.7925 58.0655 59.152 59.194 59.2546C59.2966 59.2546 59.3992 59.2546 59.5018 59.306C59.6043 59.306 59.7069 59.306 59.8095 59.3573C59.8095 58.7925 59.8095 58.5358 59.8095 57.971C59.0401 57.8683 58.681 57.8169 57.9116 57.6629C57.9116 57.1494 57.9116 56.8927 57.8603 56.3792C59.6556 56.6873 60.5789 56.8413 62.3743 57.1494C62.323 58.4844 62.323 58.9466 62.2717 60.5383Z" fill="#F15A29"/>
<path d="M12.0543 47.547C12.0543 44.9284 12.0543 43.6447 12.0543 41.026C12.0543 40.0504 12.0543 39.1775 12.0543 38.2533C12.0543 37.3804 12.1055 36.5075 12.1055 35.6859C12.1055 34.8644 12.1568 34.0942 12.2081 33.324C12.2594 32.5538 12.3107 31.7836 12.362 31.0647C12.2594 31.0647 12.2081 31.1161 12.1568 31.1161C12.1055 31.7322 12.0543 32.3484 11.9517 32.9645C11.8491 33.5807 11.7978 34.1455 11.6952 34.7617C11.5926 35.3778 11.5413 35.994 11.4387 36.6102C11.3361 37.2263 11.2335 37.7912 11.1309 38.4073C10.5667 41.7449 10.0025 45.0824 9.48952 48.4199C8.51493 48.7794 8.00198 48.9848 6.97609 49.4469C6.41185 46.4688 5.8989 43.4906 5.33466 40.5639C5.18078 39.845 5.07819 39.1262 4.9756 38.51C4.87301 37.8938 4.77042 37.2777 4.66783 36.7642C4.56524 36.2507 4.51395 35.6859 4.46265 35.1725C4.41136 34.659 4.36006 34.1969 4.30877 33.7347C4.20618 33.7861 4.20618 33.7861 4.10359 33.8374C4.20618 35.2238 4.25747 36.7129 4.30877 38.356C4.30877 39.1775 4.36006 40.0504 4.36006 40.9747C4.36006 41.8989 4.36006 42.8745 4.41136 43.9528C4.41136 46.6741 4.41136 48.0092 4.41136 50.7305C2.61605 51.6548 1.74404 52.2196 -0.0512695 53.4519C-0.0512695 44.3122 -0.0512695 35.1725 -0.0512695 26.0327C2.46216 24.6464 3.69323 24.0816 6.20667 23.2087C6.71961 25.9814 6.97609 27.3164 7.48903 30.0891C7.59162 30.5512 7.64292 31.0134 7.74551 31.5268C7.7968 31.989 7.89939 32.5024 7.95068 33.0159C8.00198 33.5294 8.05327 34.0428 8.10457 34.6076C8.15586 35.1211 8.20716 35.6859 8.20716 36.1994C8.25845 36.1994 8.25845 36.1994 8.30975 36.1481C8.30975 35.6859 8.36104 35.1725 8.41234 34.659C8.46363 34.1455 8.51493 33.6321 8.56622 33.1186C8.61751 32.5538 8.7201 31.989 8.7714 31.3728C8.87399 30.7566 8.97658 30.1405 9.07917 29.473C9.59211 26.4949 9.84858 25.0058 10.3615 22.0277C12.8237 21.4629 14.0034 21.3088 16.4656 21.1548C16.4656 29.627 16.4656 38.0992 16.4656 46.6228C14.7729 46.8282 13.8496 47.0336 12.0543 47.547Z" fill="#0E4D8E"/>
<path d="M27.2886 45.8013C27.1348 44.2609 27.0322 43.4907 26.8783 41.9503C25.3907 41.8476 24.6726 41.8476 23.1851 41.899C23.0312 43.4907 22.9286 44.2609 22.7234 45.8527C20.6716 45.9554 19.697 46.0067 17.6453 46.3661C18.825 37.9453 20.0561 29.5244 21.3385 21.1035C24.3136 21.2576 25.8011 21.4629 28.7762 22.0278C30.0073 30.1406 31.2383 38.2533 32.4694 46.3148C30.4176 46.0067 29.3917 45.904 27.2886 45.8013ZM25.5959 30.3973C25.5446 29.9352 25.4933 29.4217 25.442 29.0109C25.3907 28.5488 25.3394 28.138 25.2882 27.6759C25.2369 27.2138 25.1856 26.803 25.1856 26.3922C25.1856 25.9815 25.1343 25.5707 25.1343 25.2113C25.083 25.2113 25.083 25.2113 25.0317 25.2113C24.9804 26.0842 24.8778 27.0084 24.8265 27.8813C24.7752 28.2921 24.7239 28.7542 24.7239 29.165C24.6726 29.5757 24.6213 30.0379 24.57 30.4486C24.2623 32.6565 24.1084 33.7348 23.8519 35.9427C24.8778 35.9941 25.3907 35.9941 26.4166 36.0454C26.0576 33.7862 25.9037 32.6565 25.5959 30.3973Z" fill="#0E4D8E"/>
<path d="M41.5998 47.7526C40.7278 45.1339 40.2662 43.8502 39.3942 41.1802C39.2403 40.7181 39.0864 40.2046 38.9325 39.6911C38.8812 39.4344 38.8299 39.229 38.7786 38.9723C38.7273 38.7669 38.676 38.5102 38.6247 38.2534C38.5735 38.2534 38.5734 38.2534 38.5222 38.2534C38.5222 38.5102 38.5222 38.8182 38.5734 39.075C38.5734 39.3317 38.5735 39.6398 38.6247 39.9479C38.6247 40.2559 38.6247 40.564 38.6247 40.9748C38.6247 41.3856 38.6247 41.8477 38.6247 42.3612C38.6247 44.261 38.6247 45.2366 38.6247 47.1364C36.6243 46.777 35.6497 46.6229 33.6492 46.3662C33.6492 38.5615 33.6492 30.7568 33.6492 23.0034C35.6497 23.5169 36.6243 23.7736 38.6247 24.3898C38.6247 26.341 38.6247 27.2652 38.6247 29.2164C38.6247 29.4731 38.6247 29.7298 38.6247 29.9866C38.6247 30.2433 38.6247 30.5001 38.6247 30.7568C38.6247 31.3216 38.6247 32.0918 38.5734 33.0674C38.6247 33.0674 38.6247 33.0674 38.676 33.1187C38.7273 32.9647 38.7786 32.8107 38.7786 32.6053C38.8299 32.3999 38.8812 32.1945 38.9325 31.9891C38.9838 31.7837 39.0864 31.5783 39.189 31.3729C39.2916 31.1676 39.3429 30.9108 39.4455 30.6541C40.3175 28.4975 40.7278 27.4192 41.5485 25.314C43.9594 26.0842 45.1905 26.5463 47.6013 27.3679C45.9599 30.5001 44.3184 33.6322 42.7796 36.7644C44.421 40.8721 46.0625 44.9798 47.7552 49.0876C45.3443 48.5228 44.1133 48.266 41.5998 47.7526Z" fill="#0E4D8E"/>
<path d="M57.1935 51.2953C57.0396 49.9603 56.937 49.2928 56.7831 47.9578C55.2956 47.5983 54.5261 47.3929 53.0386 47.0335C52.8334 48.3172 52.7821 48.9847 52.5769 50.2684C50.5252 49.7549 49.5506 49.5495 47.4988 49.0874C48.7298 42.2583 49.9609 35.4291 51.192 28.6514C54.1671 29.7296 55.7059 30.2945 58.7323 31.3214C59.9634 38.3559 61.1944 45.4418 62.4768 52.4763C60.3737 52.0142 59.2965 51.8088 57.1935 51.2953ZM55.5007 37.7911C55.4494 37.3803 55.3981 36.9695 55.3469 36.5588C55.2956 36.148 55.2443 35.7886 55.193 35.3778C55.1417 34.967 55.0904 34.6076 55.0904 34.2482C55.0904 33.8887 55.0391 33.5293 55.0391 33.2212C54.9878 33.2212 54.9878 33.2212 54.9365 33.1699C54.8852 33.9401 54.7826 34.6589 54.7313 35.3778C54.68 35.7372 54.6287 36.0967 54.6287 36.4561C54.5774 36.8155 54.5261 37.1749 54.4748 37.5344C54.1671 39.3315 54.0132 40.2557 53.7567 42.0529C54.7826 42.361 55.3469 42.515 56.3727 42.7717C55.9111 40.8206 55.7572 39.7936 55.5007 37.7911Z" fill="#0E4D8E"/>
<path d="M76.942 42.0528C76.942 44.3634 76.5829 46.1092 75.8135 47.2388C75.0441 48.3685 73.8643 48.8306 72.2229 48.6766C70.8893 48.4712 70.1711 48.3685 68.8375 48.1631C68.8375 50.3197 68.8375 51.3979 68.8375 53.5545C66.7857 53.2464 65.7598 53.0924 63.708 52.6816C63.708 46.1092 63.708 39.4855 63.708 32.9131C66.5805 33.8373 69.5556 34.6075 72.5307 35.275C74.0182 35.5831 75.1467 36.302 75.8648 37.3803C76.5317 38.4072 76.942 39.9989 76.942 42.0528ZM71.9151 41.9501C71.9151 41.642 71.8638 41.334 71.8126 41.0772C71.7613 40.8205 71.6587 40.6151 71.5048 40.4611C71.3509 40.2557 71.1457 40.1016 70.8892 39.9989C70.6328 39.8449 70.2737 39.7422 69.8634 39.6909C69.453 39.5882 69.2478 39.5368 68.8375 39.4855C68.8375 41.1799 68.8375 42.0015 68.8375 43.6959C69.1965 43.7473 69.4017 43.7986 69.7608 43.85C70.5815 44.004 71.0944 43.9526 71.4535 43.6446C71.71 43.3878 71.8638 42.823 71.9151 41.9501Z" fill="#0E4D8E"/>
<path d="M91.92 46.3148C91.92 48.42 91.5609 50.1145 90.7915 51.3468C90.0221 52.5791 88.8423 53.4007 87.2009 53.6574C84.4822 54.1195 81.6098 54.2735 78.8398 54.2735C78.8398 48.3173 78.8398 42.3097 78.8398 36.3535C80.8403 36.6102 81.8149 36.6616 83.8154 36.7643C83.8154 39.0749 83.8154 40.2559 83.8154 42.5665C83.8154 42.5665 83.918 42.5665 84.0206 42.5151C84.1232 42.4638 84.3797 42.4124 84.7387 42.4124C85.0978 42.3611 85.6107 42.3097 86.175 42.3097C87.0983 42.2584 87.8677 42.2584 88.4832 42.3611C89.0988 42.4638 89.663 42.6178 90.0734 42.7719C90.4837 42.9773 90.8428 43.234 91.048 43.4907C91.3044 43.7988 91.4583 44.1069 91.6122 44.415C91.7148 44.723 91.8174 45.0825 91.8174 45.4419C91.92 45.75 91.92 46.0581 91.92 46.3148ZM87.047 47.7012C87.047 47.3931 86.9957 47.1363 86.9444 46.931C86.8931 46.7256 86.7905 46.5715 86.6366 46.4175C86.4827 46.3148 86.2776 46.2121 86.0211 46.1608C85.7646 46.1094 85.4056 46.1094 84.9952 46.1094C84.5335 46.1608 84.2771 46.1608 83.7641 46.1608C83.7641 47.7012 83.7641 48.4714 83.7641 50.0118C84.1745 50.0118 84.431 49.9604 84.8413 49.9604C85.662 49.9091 86.2263 49.7037 86.534 49.3443C86.8931 49.0362 87.047 48.4714 87.047 47.7012Z" fill="#0E4D8E"/>
<path d="M93.9717 52.1168C93.9717 46.7254 93.9717 41.3853 93.9717 35.9939C97.8188 35.2751 101.512 33.9914 105 32.2456C105 33.9914 105 34.8129 105 36.5587C102.589 37.8424 101.358 38.4072 98.9473 39.2288C98.9473 39.9476 98.9473 40.3071 98.9473 41.0259C101.358 40.153 102.589 39.5882 105 38.2532C105 39.5369 105 40.2044 105 41.488C102.589 42.8744 101.358 43.4392 98.9473 44.4148C98.9473 45.185 98.9473 45.5444 98.9473 46.3146C101.358 45.339 102.589 44.7229 105 43.2852C105 44.7742 105 45.4931 105 46.9821C101.461 49.0874 97.9214 50.8845 93.9717 52.1168Z" fill="#0E4D8E"/>
<path d="M79.558 0.2054C78.8911 -0.102681 78.2756 1.27722e-05 77.7114 0.462134C77.0445 0.975602 76.6855 1.64311 76.4803 2.41331C76.2751 3.08082 76.2751 3.74833 76.6855 4.36449C76.7881 4.51853 76.7368 4.67257 76.6342 4.87796C76.2751 5.49412 75.9161 6.16163 75.557 6.77779C74.3259 8.93436 73.1461 11.0909 71.9151 13.2475C71.8125 13.4015 71.7612 13.4529 71.556 13.4015C71.0944 13.2988 70.6327 13.2475 70.1198 13.1961C68.8374 13.1448 67.6063 13.6069 66.3753 14.1204C64.7851 14.7365 63.2976 15.6094 61.8613 16.5337C59.8096 17.8174 57.963 19.3064 56.3215 21.0522C54.7827 22.644 53.449 24.3384 52.1667 26.1355C51.9102 26.495 51.6024 26.9057 51.3459 27.2652C51.7563 27.4192 52.1154 27.5219 52.5257 27.6759C59.707 30.2433 66.8882 32.7079 74.0694 34.1456C75.3005 30.5514 75.9161 26.8544 75.9673 23.0547C75.9673 21.2576 75.8648 19.4091 75.4031 17.6633C75.044 16.3796 74.4798 15.1473 73.4026 14.2744C73.2487 14.1717 73.3513 14.069 73.4026 13.9663C73.7617 13.1961 74.172 12.4259 74.5311 11.6557C75.557 9.55052 76.5829 7.39395 77.6601 5.28873C77.7627 5.08335 77.8652 4.98065 78.0704 4.98065C78.3269 4.92931 78.5321 4.87796 78.7373 4.77527C79.8657 4.10776 80.43 3.08082 80.4813 1.7458C80.4813 1.02695 80.1735 0.513481 79.558 0.2054ZM69.7094 17.0472C61.2458 21.2576 58.0655 28.0354 58.0655 28.0354L54.2184 26.649C54.7314 25.8788 57.2448 23.2601 58.4246 22.0278L58.4759 21.9764C58.5272 21.9251 58.6298 21.8224 58.6811 21.7711C58.9375 21.5143 59.0401 21.3603 59.0401 21.3603C61.0919 19.3064 63.4515 17.5606 66.1188 16.3283C67.4011 15.7635 68.7348 15.25 70.1198 14.9419C70.2224 14.9419 70.3762 14.8906 70.4788 14.8906C71.4534 15.4041 70.3762 16.6877 69.7094 17.0472Z" fill="#F15A29"/>
</svg>
