<svg width="160" height="24" viewBox="0 0 160 24" fill="none" xmlns="http://www.w3.org/2000/svg">
<path d="M22 10.0999C22.1 9.59994 21.7 8.99994 21.2 8.99994L15.5 8.19994L12.9 2.99994C12.8 2.79994 12.7 2.69994 12.5 2.59994C12 2.29994 11.4 2.49994 11.1 2.99994L8.6 8.19994L2.9 8.99994C2.6 8.99994 2.4 9.09994 2.3 9.29994C1.9 9.69994 1.9 10.2999 2.3 10.6999L6.4 14.6999L5.4 20.3999C5.4 20.5999 5.4 20.7999 5.5 20.9999C5.8 21.4999 6.4 21.6999 6.9 21.3999L12 18.6999L17.1 21.3999C17.2 21.4999 17.4 21.4999 17.6 21.4999C17.7 21.4999 17.7 21.4999 17.8 21.4999C18.3 21.3999 18.7 20.8999 18.6 20.2999L17.6 14.5999L21.7 10.5999C21.9 10.4999 22 10.2999 22 10.0999Z" fill="#F15A29"/>
<path d="M56 10.0999C56.1 9.59994 55.7 8.99994 55.2 8.99994L49.5 8.19994L46.9 2.99994C46.8 2.79994 46.7 2.69994 46.5 2.59994C46 2.29994 45.4 2.49994 45.1 2.99994L42.6 8.19994L36.9 8.99994C36.6 8.99994 36.4 9.09994 36.3 9.29994C35.9 9.69994 35.9 10.2999 36.3 10.6999L40.4 14.6999L39.4 20.3999C39.4 20.5999 39.4 20.7999 39.5 20.9999C39.8 21.4999 40.4 21.6999 40.9 21.3999L46 18.6999L51.1 21.3999C51.2 21.4999 51.4 21.4999 51.6 21.4999C51.7 21.4999 51.7 21.4999 51.8 21.4999C52.3 21.3999 52.7 20.8999 52.6 20.2999L51.6 14.5999L55.7 10.5999C55.9 10.4999 56 10.2999 56 10.0999Z" fill="#F15A29"/>
<path d="M90 10.0999C90.1 9.59994 89.7 8.99994 89.2 8.99994L83.5 8.19994L80.9 2.99994C80.8 2.79994 80.7 2.69994 80.5 2.59994C80 2.29994 79.4 2.49994 79.1 2.99994L76.6 8.19994L70.9 8.99994C70.6 8.99994 70.4 9.09994 70.3 9.29994C69.9 9.69994 69.9 10.2999 70.3 10.6999L74.4 14.6999L73.4 20.3999C73.4 20.5999 73.4 20.7999 73.5 20.9999C73.8 21.4999 74.4 21.6999 74.9 21.3999L80 18.6999L85.1 21.3999C85.2 21.4999 85.4 21.4999 85.6 21.4999C85.7 21.4999 85.7 21.4999 85.8 21.4999C86.3 21.3999 86.7 20.8999 86.6 20.2999L85.6 14.5999L89.7 10.5999C89.9 10.4999 90 10.2999 90 10.0999Z" fill="#F15A29"/>
<path d="M123.51 10.0019L123.5 10.0504V10.0999C123.5 10.1178 123.495 10.1316 123.491 10.1394C123.49 10.1407 123.489 10.1418 123.489 10.1428C123.487 10.1445 123.486 10.1458 123.485 10.1468C123.484 10.1482 123.481 10.1503 123.476 10.1527L123.407 10.1876L123.351 10.242L119.251 14.242L119.062 14.4264L119.108 14.6863L120.107 20.3821C120.107 20.3828 120.107 20.3834 120.107 20.384C120.157 20.6899 119.969 20.9331 119.741 20.9999H119.741H119.741H119.74H119.74H119.74H119.739H119.739H119.738H119.738H119.738H119.737H119.737H119.737H119.736H119.736H119.736H119.735H119.735H119.735H119.734H119.734H119.734H119.733H119.733H119.732H119.732H119.732H119.731H119.731H119.731H119.73H119.73H119.73H119.729H119.729H119.729H119.728H119.728H119.728H119.727H119.727H119.727H119.726H119.726H119.726H119.725H119.725H119.725H119.725H119.724H119.724H119.724H119.723H119.723H119.723H119.722H119.722H119.722H119.721H119.721H119.721H119.72H119.72H119.72H119.719H119.719H119.719H119.719H119.718H119.718H119.718H119.717H119.717H119.717H119.716H119.716H119.716H119.715H119.715H119.715H119.715H119.714H119.714H119.714H119.713H119.713H119.713H119.712H119.712H119.712H119.712H119.711H119.711H119.711H119.71H119.71H119.71H119.709H119.709H119.709H119.709H119.708H119.708H119.708H119.707H119.707H119.707H119.706H119.706H119.706H119.706H119.705H119.705H119.705H119.704H119.704H119.704H119.704H119.703H119.703H119.703H119.702H119.702H119.702H119.701H119.701H119.701H119.701H119.7H119.7H119.7H119.699H119.699H119.699H119.699H119.698H119.698H119.698H119.697H119.697H119.697H119.696H119.696H119.696H119.696H119.695H119.695H119.695H119.694H119.694H119.694H119.694H119.693H119.693H119.693H119.692H119.692H119.692H119.691H119.691H119.691H119.691H119.69H119.69H119.69H119.689H119.689H119.689H119.688H119.688H119.688H119.688H119.687H119.687H119.687H119.686H119.686H119.686H119.685H119.685H119.685H119.685H119.684H119.684H119.684H119.683H119.683H119.683H119.682H119.682H119.682H119.681H119.681H119.681H119.681H119.68H119.68H119.68H119.679H119.679H119.679H119.678H119.678H119.678H119.677H119.677H119.677H119.676H119.676H119.676H119.675H119.675H119.675H119.675H119.674H119.674H119.674H119.673H119.673H119.673H119.672H119.672H119.672H119.671H119.671H119.671H119.67H119.67H119.67H119.669H119.669H119.669H119.668H119.668H119.668H119.667H119.667H119.666H119.666H119.666H119.665H119.665H119.665H119.664H119.664H119.664H119.663H119.663H119.663H119.662H119.662H119.662H119.661H119.661H119.66H119.66H119.66H119.659H119.659H119.659H119.658H119.658H119.658H119.657H119.657H119.656H119.656H119.656H119.655H119.655H119.655H119.654H119.654H119.653H119.653H119.653H119.652H119.652H119.651H119.651H119.651H119.65H119.65H119.649H119.649H119.649H119.648H119.648H119.647H119.647H119.647H119.646H119.646H119.645H119.645H119.645H119.644H119.644H119.643H119.643H119.642H119.642H119.642H119.641H119.641H119.64H119.64H119.639H119.639H119.639H119.638H119.638H119.637H119.637H119.636H119.636H119.635H119.635H119.635H119.634H119.634H119.633H119.633H119.632H119.632H119.631H119.631H119.63H119.63H119.629H119.629H119.629H119.628H119.628H119.627H119.627H119.626H119.626H119.625H119.625H119.624H119.624H119.623H119.623H119.622H119.622H119.621H119.621H119.62H119.62H119.619H119.619H119.618H119.618H119.617H119.617H119.616H119.616H119.615H119.614H119.614H119.613H119.613H119.612H119.612H119.611H119.611H119.61H119.61H119.609H119.609H119.608H119.607H119.607H119.606H119.606H119.605H119.605H119.604H119.603H119.603H119.602H119.602H119.601H119.601H119.6C119.548 20.9999 119.507 20.9999 119.468 20.9986C119.44 20.9978 119.419 20.9964 119.402 20.9947L119.4 20.9932L119.334 20.958L114.234 18.258L114 18.1342L113.766 18.258L108.666 20.958L108.654 20.9643L108.643 20.9712C108.421 21.1044 108.122 21.0468 107.94 20.7605C107.909 20.6906 107.901 20.6115 107.9 20.4428L108.892 14.7863L108.938 14.5264L108.749 14.342L104.652 10.3445C104.449 10.1399 104.449 9.85761 104.654 9.65349L104.711 9.59612L104.747 9.52355C104.747 9.52321 104.748 9.5229 104.748 9.52262C104.748 9.52248 104.748 9.52232 104.749 9.52215C104.76 9.51664 104.802 9.49994 104.9 9.49994H104.935L104.969 9.49509L110.669 8.69509L110.935 8.65787L111.051 8.41659L113.539 3.23992C113.722 2.95318 114.021 2.89541 114.243 3.02868L114.259 3.03856L114.276 3.04715C114.346 3.08207 114.371 3.10345 114.384 3.11599C114.396 3.12853 114.418 3.1537 114.453 3.22355L117.053 8.42355L117.17 8.65856L117.431 8.69509L123.131 9.49509L123.165 9.49994H123.2C123.242 9.49994 123.331 9.529 123.417 9.65078C123.502 9.77176 123.528 9.90931 123.51 10.0019Z" stroke="#F15A29"/>
<path d="M157.51 10.0019L157.5 10.0504V10.0999C157.5 10.1178 157.495 10.1316 157.491 10.1394C157.49 10.1407 157.489 10.1418 157.489 10.1428C157.487 10.1445 157.486 10.1458 157.485 10.1468C157.484 10.1482 157.481 10.1503 157.476 10.1527L157.407 10.1876L157.351 10.242L153.251 14.242L153.062 14.4264L153.108 14.6863L154.107 20.3821C154.107 20.3828 154.107 20.3834 154.107 20.384C154.157 20.6899 153.969 20.9331 153.741 20.9999H153.741H153.741H153.74H153.74H153.74H153.739H153.739H153.738H153.738H153.738H153.737H153.737H153.737H153.736H153.736H153.736H153.735H153.735H153.735H153.734H153.734H153.734H153.733H153.733H153.732H153.732H153.732H153.731H153.731H153.731H153.73H153.73H153.73H153.729H153.729H153.729H153.728H153.728H153.728H153.727H153.727H153.727H153.726H153.726H153.726H153.725H153.725H153.725H153.725H153.724H153.724H153.724H153.723H153.723H153.723H153.722H153.722H153.722H153.721H153.721H153.721H153.72H153.72H153.72H153.719H153.719H153.719H153.719H153.718H153.718H153.718H153.717H153.717H153.717H153.716H153.716H153.716H153.715H153.715H153.715H153.715H153.714H153.714H153.714H153.713H153.713H153.713H153.712H153.712H153.712H153.712H153.711H153.711H153.711H153.71H153.71H153.71H153.709H153.709H153.709H153.709H153.708H153.708H153.708H153.707H153.707H153.707H153.706H153.706H153.706H153.706H153.705H153.705H153.705H153.704H153.704H153.704H153.704H153.703H153.703H153.703H153.702H153.702H153.702H153.701H153.701H153.701H153.701H153.7H153.7H153.7H153.699H153.699H153.699H153.699H153.698H153.698H153.698H153.697H153.697H153.697H153.696H153.696H153.696H153.696H153.695H153.695H153.695H153.694H153.694H153.694H153.694H153.693H153.693H153.693H153.692H153.692H153.692H153.691H153.691H153.691H153.691H153.69H153.69H153.69H153.689H153.689H153.689H153.688H153.688H153.688H153.688H153.687H153.687H153.687H153.686H153.686H153.686H153.685H153.685H153.685H153.685H153.684H153.684H153.684H153.683H153.683H153.683H153.682H153.682H153.682H153.681H153.681H153.681H153.681H153.68H153.68H153.68H153.679H153.679H153.679H153.678H153.678H153.678H153.677H153.677H153.677H153.676H153.676H153.676H153.675H153.675H153.675H153.675H153.674H153.674H153.674H153.673H153.673H153.673H153.672H153.672H153.672H153.671H153.671H153.671H153.67H153.67H153.67H153.669H153.669H153.669H153.668H153.668H153.668H153.667H153.667H153.666H153.666H153.666H153.665H153.665H153.665H153.664H153.664H153.664H153.663H153.663H153.663H153.662H153.662H153.662H153.661H153.661H153.66H153.66H153.66H153.659H153.659H153.659H153.658H153.658H153.658H153.657H153.657H153.656H153.656H153.656H153.655H153.655H153.655H153.654H153.654H153.653H153.653H153.653H153.652H153.652H153.651H153.651H153.651H153.65H153.65H153.649H153.649H153.649H153.648H153.648H153.647H153.647H153.647H153.646H153.646H153.645H153.645H153.645H153.644H153.644H153.643H153.643H153.642H153.642H153.642H153.641H153.641H153.64H153.64H153.639H153.639H153.639H153.638H153.638H153.637H153.637H153.636H153.636H153.635H153.635H153.635H153.634H153.634H153.633H153.633H153.632H153.632H153.631H153.631H153.63H153.63H153.629H153.629H153.629H153.628H153.628H153.627H153.627H153.626H153.626H153.625H153.625H153.624H153.624H153.623H153.623H153.622H153.622H153.621H153.621H153.62H153.62H153.619H153.619H153.618H153.618H153.617H153.617H153.616H153.616H153.615H153.614H153.614H153.613H153.613H153.612H153.612H153.611H153.611H153.61H153.61H153.609H153.609H153.608H153.607H153.607H153.606H153.606H153.605H153.605H153.604H153.603H153.603H153.602H153.602H153.601H153.601H153.6C153.548 20.9999 153.507 20.9999 153.468 20.9986C153.44 20.9978 153.419 20.9964 153.402 20.9947L153.4 20.9932L153.334 20.958L148.234 18.258L148 18.1342L147.766 18.258L142.666 20.958L142.654 20.9643L142.643 20.9712C142.421 21.1044 142.122 21.0468 141.94 20.7605C141.909 20.6906 141.901 20.6115 141.9 20.4428L142.892 14.7863L142.938 14.5264L142.749 14.342L138.652 10.3445C138.449 10.1399 138.449 9.85761 138.654 9.65349L138.711 9.59612L138.747 9.52355C138.747 9.52321 138.748 9.5229 138.748 9.52262C138.748 9.52248 138.748 9.52232 138.749 9.52215C138.76 9.51664 138.802 9.49994 138.9 9.49994H138.935L138.969 9.49509L144.669 8.69509L144.935 8.65787L145.051 8.41659L147.539 3.23992C147.722 2.95318 148.021 2.89541 148.243 3.02868L148.259 3.03856L148.276 3.04715C148.346 3.08207 148.371 3.10345 148.384 3.11599C148.396 3.12853 148.418 3.1537 148.453 3.22355L151.053 8.42355L151.17 8.65856L151.431 8.69509L157.131 9.49509L157.165 9.49994H157.2C157.242 9.49994 157.331 9.529 157.417 9.65078C157.502 9.77176 157.528 9.90931 157.51 10.0019Z" stroke="#F15A29"/>
</svg>
