<svg width="140" height="140" viewBox="0 0 140 140" fill="none" xmlns="http://www.w3.org/2000/svg">
<path d="M70 87.5002C60.7175 87.5002 51.8151 83.8127 45.2513 77.2489C38.6875 70.6851 35 61.7827 35 52.5002V5.8335H105V52.5002C105 61.7827 101.313 70.6851 94.7488 77.2489C88.185 83.8127 79.2826 87.5002 70 87.5002ZM70 87.5002C76.1884 87.5002 82.1233 89.9585 86.4992 94.3343C90.875 98.7102 93.3334 104.645 93.3334 110.833M70 87.5002C63.8117 87.5002 57.8767 89.9585 53.5009 94.3343C49.125 98.7102 46.6667 104.645 46.6667 110.833M35 17.5002H5.83337V40.8335C5.83337 55.4693 16.2809 64.1668 29.1667 64.1668H35V17.5002ZM105 64.1668H110.833C123.719 64.1668 134.167 55.4693 134.167 40.8335V17.5002H105V64.1668ZM29.1667 134.167H110.833V110.833H29.1667V134.167Z" stroke="white" stroke-width="9"/>
</svg>
