<svg width="40" height="40" viewBox="0 0 40 40" fill="none" xmlns="http://www.w3.org/2000/svg">
<rect x="1.5" y="1.5" width="37" height="37" rx="18.5" stroke="#AEAEAE" stroke-width="3"/>
<path d="M14.69 21.0652L23.18 29.5402C23.3195 29.6808 23.4854 29.7924 23.6682 29.8685C23.851 29.9447 24.047 29.9839 24.245 29.9839C24.443 29.9839 24.6391 29.9447 24.8219 29.8685C25.0047 29.7924 25.1706 29.6808 25.31 29.5402C25.5894 29.2591 25.7462 28.879 25.7462 28.4827C25.7462 28.0864 25.5894 27.7062 25.31 27.4252L17.885 19.9252L25.31 12.5002C25.5894 12.2191 25.7462 11.839 25.7462 11.4427C25.7462 11.0464 25.5894 10.6662 25.31 10.3852C25.1711 10.2435 25.0054 10.1307 24.8226 10.0535C24.6398 9.97621 24.4435 9.93601 24.245 9.93519C24.0466 9.93601 23.8502 9.97621 23.6674 10.0535C23.4846 10.1307 23.3189 10.2435 23.18 10.3852L14.69 18.8602C14.5378 19.0007 14.4163 19.1711 14.3331 19.3609C14.25 19.5506 14.2071 19.7555 14.2071 19.9627C14.2071 20.1698 14.25 20.3747 14.3331 20.5645C14.4163 20.7542 14.5378 20.9247 14.69 21.0652Z" fill="#AEAEAE"/>
</svg>
